<svg xmlns="http://www.w3.org/2000/svg" viewBox="0 0 135.04 111.32"><defs><style>.cls-1{fill:#efcbe4;}.cls-2{fill:#fff;}.cls-3{fill:none;stroke:#fff;stroke-miterlimit:10;}</style></defs><g id="Camada_2" data-name="Camada 2"><g id="bird"><path class="cls-1" d="M38.7,36.31a6,6,0,0,1,1.5-3.5,5.3,5.3,0,0,1,2.5-1.5,46.18,46.18,0,0,1,12-1c3.07.06,5.54,0,7,0A26.65,26.65,0,0,0,50.2,5.81,26.7,26.7,0,0,0,37.7.31a25,25,0,0,0-12,1c-3.13,1.11-14.56,4.68-21,16C1.19,23.47.74,29.05.2,35.81c-.65,8.11.42,14.3,1.5,20.5a116.28,116.28,0,0,0,5,19,67.81,67.81,0,0,0,21,24,44.42,44.42,0,0,0,21,9,87.63,87.63,0,0,0,24,3,88.17,88.17,0,0,0,21.5-3,74.88,74.88,0,0,0,33-30.5,76.43,76.43,0,0,0,5.5-52.5A48.08,48.08,0,0,0,114,1.31c-1.53-.55-3.78-1.09-5.31,0-2.94,2.1-.48,8.35-1,15-.34,4.37-2.11,10.64-9,18a15.53,15.53,0,0,1-12,7h-44a5.49,5.49,0,0,1-2.5-1.5A5.65,5.65,0,0,1,38.7,36.31Z"/><circle class="cls-2" cx="39.7" cy="17.31" r="3"/><path class="cls-2" d="M58.14,14.31a12.65,12.65,0,0,0-7.44,5,15.14,15.14,0,0,0-2,5,14.94,14.94,0,0,0,0,6h2.47a19.77,19.77,0,0,1,.53-6,19.14,19.14,0,0,1,1-3,8.31,8.31,0,0,1,2-3A8.44,8.44,0,0,1,59,16.12Z"/><path class="cls-3" d="M48.4,55.66V89.12a9.64,9.64,0,0,0,8.3,7.19H78.92a10.4,10.4,0,0,0,6.28-3.5,9.88,9.88,0,0,0,2-4,6.13,6.13,0,0,0-1-5,5.8,5.8,0,0,0-3-2,13.32,13.32,0,0,0,13-5,6.87,6.87,0,0,0-1-6,6.12,6.12,0,0,0-3-2,13,13,0,0,0,10-2,12.29,12.29,0,0,0,4-5,8.63,8.63,0,0,0-2-5,8.85,8.85,0,0,0-6-3H48.4Z"/><path class="cls-3" d="M54.2,58.81l-.48,28.47a5.75,5.75,0,0,0,1.48,3.53A5.84,5.84,0,0,0,59,92.61H76.47a7.37,7.37,0,0,0,4.73-1.8,7.16,7.16,0,0,0,2-3,5.83,5.83,0,0,0-2-3,5.94,5.94,0,0,0-3.9-1.2l-9.78-.3v-4l14.68-.5a7.78,7.78,0,0,0,6-1,7.62,7.62,0,0,0,3-4,7.62,7.62,0,0,0-3-4,7.78,7.78,0,0,0-6-1V65.58l11,.23a8.29,8.29,0,0,0,6-2,7.73,7.73,0,0,0,2-3,5.21,5.21,0,0,0-5-4H54.11Z"/></g></g></svg>