<svg xmlns="http://www.w3.org/2000/svg" viewBox="0 0 110.79 56.32"><defs><style>.cls-1{fill:#7f5d5d;}</style></defs><g id="Camada_2" data-name="Camada 2"><g id="coffeshop"><path class="cls-1" d="M109,11.32a13.51,13.51,0,0,0-3-7,11.88,11.88,0,0,0-2-2,10.85,10.85,0,0,0-3.91-2A10.44,10.44,0,0,0,95,.32a13.19,13.19,0,0,0-6.83,4v-4H21V34.69a10.87,10.87,0,0,0,2,4.63,11.08,11.08,0,0,0,5.55,3.86H86.79Q91.17,37.83,96,32.32q5.06-5.76,10-11A14,14,0,0,0,109,11.32Zm-7,2a9.7,9.7,0,0,1-2.1,3.91A24.09,24.09,0,0,1,96,22.32a24.15,24.15,0,0,1-5,3.81,23.95,23.95,0,0,1,0-13.81,6.89,6.89,0,0,1,1-3,7.16,7.16,0,0,1,4-3,4.61,4.61,0,0,1,4,1,4.52,4.52,0,0,1,2,2A5.51,5.51,0,0,1,102,13.32Z"/><path class="cls-1" d="M26.21,42.53,0,42.32a33,33,0,0,0,18,14l75-1a22.41,22.41,0,0,0,13-6,21.36,21.36,0,0,0,4.79-7Z"/></g></g></svg>