<svg xmlns="http://www.w3.org/2000/svg" viewBox="0 0 113.5 129.5"><defs><style>.cls-1{fill:#124411;}</style></defs><g id="Camada_2" data-name="Camada 2"><g id="crickets"><path class="cls-1" d="M0,129.5H111.22A37,37,0,0,1,104.5,113c-2.22-15.89,7.12-27.71,9-30l-.42,0a17.35,17.35,0,0,0-9.58,2c-1.48.85-3,2.91-6,7-3.27,4.47-4.91,6.7-6,9a33.34,33.34,0,0,0-3,10.5,134,134,0,0,1,0-79.9A110.1,110.1,0,0,0,77.5,50a112,112,0,0,0-10,35.25A224.43,224.43,0,0,1,69.5,28c1.11-6.72,2.47-13.06,4-19a44.69,44.69,0,0,0-12,9A45.53,45.53,0,0,0,50.68,37.5,43.17,43.17,0,0,0,40.5,13a43,43,0,0,0-20-13,222.27,222.27,0,0,1,15,43,222.37,222.37,0,0,1,6,50A190.16,190.16,0,0,0,30,59.5c-2.24-4.78-4.89-9.66-10-14a34.33,34.33,0,0,0-7.84-5A97.73,97.73,0,0,1,19.5,62a98.25,98.25,0,0,1,2,27A34.1,34.1,0,0,0,15,75.5,34.2,34.2,0,0,0,0,64.75,83.72,83.72,0,0,1,6.5,100,83.33,83.33,0,0,1,0,129.5Z"/></g></g></svg>