<svg xmlns="http://www.w3.org/2000/svg" viewBox="0 0 112.49 129.58"><defs><style>.cls-1{fill:#ef142e;}.cls-2{fill:#d1283d;}</style></defs><g id="Camada_2" data-name="Camada 2"><g id="fire"><path class="cls-1" d="M49.05,129.08c-8.11,0-19.68-1.9-28.7-10.93a37.65,37.65,0,0,1-9.75-17.62L14,73.86a15.52,15.52,0,0,0-2.59-11.65A15.65,15.65,0,0,0,.66,56.06,6.29,6.29,0,0,1,5.11,52a5.29,5.29,0,0,1,1.26-.14,6.57,6.57,0,0,1,3.34,1l23.81,23.8L24.71,59.54a30.89,30.89,0,0,1-4.22-21,30.48,30.48,0,0,1,7.2-15,16.54,16.54,0,0,0,.84,8.07,16.38,16.38,0,0,0,3.09,5.16l11.14,13,.8-.59a26.13,26.13,0,0,1-4.06-12.8A25.61,25.61,0,0,1,41,26.89l0-.06v-.06a31.48,31.48,0,0,1,5.41-15A31.89,31.89,0,0,1,59.59.93a44.73,44.73,0,0,0-1.07,29.72l0,.05,0,.05a58.86,58.86,0,0,0,4,6,59.74,59.74,0,0,0,9,9.51A38.29,38.29,0,0,1,79,64.07l.15,1,.7-.71A23.38,23.38,0,0,0,83.9,36.4,35.94,35.94,0,0,1,97.55,51.71,36.46,36.46,0,0,1,99,77.85l1,.32,8.53-24.24a64.52,64.52,0,0,1,2,34.46,61.67,61.67,0,0,1-6,15.87,54.53,54.53,0,0,1-45.69,24.29c-.89,0-1.68,0-2.35-.05h-.1a45.1,45.1,0,0,1-7.37.57Z"/><path class="cls-2" d="M58.69,1.9a45.14,45.14,0,0,0-.64,28.9l0,.11.06.09a58.2,58.2,0,0,0,4.06,6.1,60.24,60.24,0,0,0,9.07,9.55,38,38,0,0,1,7.24,17.49l.28,2,1.42-1.41a24.47,24.47,0,0,0,6.78-13,24.18,24.18,0,0,0-1.84-13.85,35.29,35.29,0,0,1,11.94,14.1,35.94,35.94,0,0,1,1.46,25.77l1.89.64,6-17.06,2-5.78A63.71,63.71,0,0,1,110,88.28a60.84,60.84,0,0,1-5.88,15.7,54,54,0,0,1-45.27,24.07c-.78,0-1.54,0-2.33-.05h-.21a43.87,43.87,0,0,1-7.28.57c-8,0-19.45-1.87-28.34-10.79a37.27,37.27,0,0,1-9.6-17.29L14.49,74a16.07,16.07,0,0,0-2.68-12A16.08,16.08,0,0,0,1.37,55.65a5.73,5.73,0,0,1,3.85-3.17,5,5,0,0,1,1.15-.13,6,6,0,0,1,3,.87L30.89,74.71l4.54,4.53-2.94-5.7-3.67-7.11-3.67-7.12v0l0,0A30.37,30.37,0,0,1,21,38.66,29.63,29.63,0,0,1,27,25.16a17.07,17.07,0,0,0,1,6.69,16.79,16.79,0,0,0,3.18,5.3L42.12,49.89l.21.25a34.15,34.15,0,0,0,6.52,7.62l1.41-1.41-5.77-6.76L44,49a25.48,25.48,0,0,1-4-12.5,25.21,25.21,0,0,1,1.44-9.4l0-.12,0-.12a30.89,30.89,0,0,1,5.32-14.75A31.23,31.23,0,0,1,58.69,1.9M60.5,0a31.74,31.74,0,0,0-20,26.73A26.14,26.14,0,0,0,39,36.5a26.73,26.73,0,0,0,4.14,13L49.5,57a33,33,0,0,1-6.36-7.45L32,36.5a15.9,15.9,0,0,1-3-5,16.36,16.36,0,0,1-.5-9.5A30.93,30.93,0,0,0,20,38.5a31.31,31.31,0,0,0,4.26,21.27L31.6,74,10,52.43a7,7,0,0,0-3.66-1.08A6,6,0,0,0,5,51.5a6.86,6.86,0,0,0-5,5,15.14,15.14,0,0,1,11,6,15,15,0,0,1,2.5,11.3q-1.71,13.38-3.41,26.76A38.34,38.34,0,0,0,20,118.5c9.32,9.34,21.35,11.08,29.05,11.08A45.43,45.43,0,0,0,56.5,129c.68,0,1.47.05,2.37.05A55,55,0,0,0,105,104.5a62.59,62.59,0,0,0,6-16,65.3,65.3,0,0,0-2.5-36.09L99.5,78A37.05,37.05,0,0,0,98,51.5,36.54,36.54,0,0,0,82.5,35,23.61,23.61,0,0,1,86,51.5,23.31,23.31,0,0,1,79.5,64,39,39,0,0,0,72,46a59.25,59.25,0,0,1-9-9.46,58.9,58.9,0,0,1-4-6A44.27,44.27,0,0,1,60.5,0Z"/></g></g></svg>