<svg xmlns="http://www.w3.org/2000/svg" viewBox="0 0 144.16 103.81"><defs><style>.cls-1{fill:#e8ebed;}.cls-2{fill:#8bd6f3;}</style></defs><g id="Camada_2" data-name="Camada 2"><g id="rain"><ellipse class="cls-1" cx="30.16" cy="46.28" rx="30.16" ry="24.76"/><ellipse class="cls-1" cx="91.01" cy="32.82" rx="34.85" ry="32.82"/><circle class="cls-1" cx="66.43" cy="34.74" r="33"/><ellipse class="cls-1" cx="111.71" cy="34.74" rx="32.45" ry="28.95"/><path class="cls-2" d="M73.22,99.72c-3.4,7.63-16,3.87-18-5.39S68.88,81.42,68.88,81.42,76.62,92.09,73.22,99.72Z"/><path class="cls-2" d="M105.91,86.34c-3.4,7.63-16,3.87-18-5.39S101.57,68,101.57,68,109.32,78.71,105.91,86.34Z"/><path class="cls-2" d="M40.22,93.72c-3.4,7.63-16,3.87-18-5.39S35.88,75.42,35.88,75.42,43.62,86.09,40.22,93.72Z"/></g></g></svg>