<svg xmlns="http://www.w3.org/2000/svg" viewBox="0 0 139.79 101.09"><defs><style>.cls-1{fill:#1dc6dd;}</style></defs><g id="Camada_2" data-name="Camada 2"><g id="waves"><path class="cls-1" d="M47.21,12.67a14.74,14.74,0,0,0-3.5-7.5A14.8,14.8,0,0,0,35,.47a40.73,40.73,0,0,0-26.3,14.7,40.7,40.7,0,0,0-8.61,28,63.57,63.57,0,0,0,14.61,35C30.6,96.87,52.17,99.56,57,100a85.39,85.39,0,0,0,44.74-4.87,83.35,83.35,0,0,0,22.5-13.5c5.22-4.38,9.61-8.49,12.5-15.5,4.72-11.48,2.21-24.07-1.5-27.5-1.45-1.34-2.14-2.06-3.5-3.5-2.33-2.46-3-3.43-3.5-4.5a11,11,0,0,1-1-4c0-.52-.09-6.19,4.5-9.5a11.07,11.07,0,0,1,7.29-2,11.58,11.58,0,0,0-.29-9C136.47,1.79,131-.65,125.3.47a41.33,41.33,0,0,0-20.59,10.7c-12.85,12.47-12.53,29.12-12.43,32a19.3,19.3,0,0,1-10.57-7,18.77,18.77,0,0,1-3.5-8.5,13.47,13.47,0,0,1,4.5-10.5,13.32,13.32,0,0,1,10-3,12.79,12.79,0,0,0-2-9C87.72.94,82-1,76.21.47a44.14,44.14,0,0,0-8.5,3.7,46.45,46.45,0,0,0-17,17,20.28,20.28,0,0,0-3,8,21.32,21.32,0,0,0,3,14,18.73,18.73,0,0,1-14-5,18.78,18.78,0,0,1-5.5-14.5c.06-.45,1.12-7.7,7.5-10.5A12.74,12.74,0,0,1,47.21,12.67Z"/></g></g></svg>