<svg xmlns="http://www.w3.org/2000/svg" viewBox="0 0 138.38 131.29"><defs><style>.cls-1{fill:#636768;}</style></defs><g id="Camada_2" data-name="Camada 2"><g id="whitenoise"><path class="cls-1" d="M131,37H10a10.22,10.22,0,0,0-6,2,10.76,10.76,0,0,0-4,8v74.61A11.17,11.17,0,0,0,3,128a11.13,11.13,0,0,0,6.68,3.29H128.5c.77-.1,5.9-.86,8.5-5.29a10.29,10.29,0,0,0,1.38-4.6V49A13.33,13.33,0,0,0,137,43,13.58,13.58,0,0,0,131,37Zm-28,74a7.44,7.44,0,0,1-6,6.14H18A5.37,5.37,0,0,1,15,116a5.61,5.61,0,0,1-2-3.87V58a9.84,9.84,0,0,1,5.74-9h77A12.21,12.21,0,0,1,100,52a12.47,12.47,0,0,1,3,6Z"/><polygon class="cls-1" points="63.95 37 45 18 48 16 67 35 104 0 107 2 69.19 37 63.95 37"/></g></g></svg>