<svg xmlns="http://www.w3.org/2000/svg" viewBox="0 0 100.3 86.6"><defs><style>.cls-1{fill:#4889c8;}</style></defs><g id="Camada_2" data-name="Camada 2"><g id="wind"><path class="cls-1" d="M34.71,45.71c7.67-.49,14.84,1,22.35,2.22,7.1,1.14,14.11,1.83,21.25.74,6.42-1,13-3.8,17.39-8.78,4.75-5.46,6.52-13.29,1.92-19.44-5.34-7.12-14.7-8-22.58-5a3.85,3.85,0,0,0-2.62,4.61c.49,1.8,2.71,3.36,4.61,2.62a22.68,22.68,0,0,1,4.7-1.33c-.16,0-.54,0,.32-.05.44,0,.88-.07,1.32-.08h.88c.22,0,1.41.11,1.18.07a12.2,12.2,0,0,1,2.14.54c.06,0,1.1.48.43.15l.64.33a11,11,0,0,1,1.52,1c-.57-.45.33.33.35.34.26.25.5.53.75.78.74.76-.26-.5.31.38.16.26.32.5.47.77s.29.52.42.79c-.31-.68.12.39.14.45.07.23.12.46.18.7.29,1,0-.66.08.47,0,.26,0,.52,0,.78a6.51,6.51,0,0,1,0,.77q.09-.52,0,.15a11.23,11.23,0,0,1-3.5,6,13.55,13.55,0,0,1-3,2.27c-.55.34-1.12.66-1.69.95l-.69.35-.7.32q.45-.2-.18.06a33.77,33.77,0,0,1-3.7,1.16c-.63.15-1.27.29-1.91.41l-1.16.2a2.59,2.59,0,0,1-.57.07,67.82,67.82,0,0,1-17.4-.92c-7.81-1.28-15.68-2.89-23.64-2.38a3.75,3.75,0,0,0,0,7.5Z"/><path class="cls-1" d="M3.75,31.89c7.67-.49,14.84,1,22.35,2.23,7.1,1.14,14.11,1.83,21.25.73,6.42-1,13-3.8,17.39-8.78,4.75-5.46,6.52-13.29,1.92-19.44-5.34-7.12-14.7-8-22.58-5a3.86,3.86,0,0,0-2.62,4.62c.49,1.8,2.71,3.35,4.61,2.62a23.34,23.34,0,0,1,4.7-1.34c-.16,0-.54,0,.32,0,.44,0,.88-.07,1.32-.08h.88c.22,0,1.41.11,1.18.07A13.12,13.12,0,0,1,56.61,8c.06,0,1.1.49.43.16.21.11.43.21.64.33a10,10,0,0,1,1.52,1c-.57-.45.33.33.35.35.26.25.5.52.75.78.74.76-.26-.51.31.38.16.25.32.5.47.76s.29.53.42.8c-.31-.68.12.39.14.44.07.24.12.47.18.7.29,1,0-.65.08.48,0,.26,0,.51,0,.78a6.74,6.74,0,0,1,0,.77q.09-.54,0,.15a11.23,11.23,0,0,1-3.5,6,13.87,13.87,0,0,1-3,2.27c-.55.34-1.12.66-1.69.95l-.69.34-.7.32-.18.07A33.77,33.77,0,0,1,48.43,27c-.63.15-1.27.29-1.91.41l-1.16.19a2.1,2.1,0,0,1-.57.07,67.82,67.82,0,0,1-17.4-.92c-7.81-1.27-15.68-2.88-23.64-2.38A3.83,3.83,0,0,0,0,28.14C.09,30.07,1.66,32,3.75,31.89Z"/><path class="cls-1" d="M6.65,63.44q21.78.75,43.6.58c3.6,0,7.21-.1,10.82-.14,1.72,0,3.45,0,5.17.11l1.16.11c.88.07-1.14-.26.29.05a27.68,27.68,0,0,1,2.72.67,4.43,4.43,0,0,1,1,.37c-1.05-.69-.14,0,.13.1.55.28,1,.62,1.58.93,1,.59-.54-.51,0,0,.22.2.46.39.68.6s.5.52.76.78c.8.81-.5-.85.1.12.19.3.39.6.57.92,0,.09.45,1.13.21.38s.09.38.11.44.32.89.23,1l-.09-.64a4.71,4.71,0,0,1,0,.53c0,.29,0,.58,0,.87,0,1.18.26-1.09,0,.06-.08.35-.15.69-.25,1a3.2,3.2,0,0,1-.34,1c.28-.65.31-.73.07-.23l-.16.31c-.17.31-.37.6-.55.9s-.26.39.16-.16c-.15.18-.3.36-.46.53s-.32.33-.49.49-.34.32-.52.47c.56-.42.62-.47.18-.16-.21.13-.42.27-.63.39s-.46.26-.7.37c.59-.24.63-.25.1-.06-.31.1-.62.21-.93.29s-1.65.54-.41.14a7.77,7.77,0,0,1-2.36,0c-1.27,0,1,.29-.23,0-.38-.11-.77-.18-1.16-.29A6.19,6.19,0,0,1,66,75.91c1.13.62-.39-.25-.59-.36a5,5,0,1,0-5.05,8.63C67.26,88.1,76.78,87.43,82,80.93a16.15,16.15,0,0,0,3.77-10.75A15.52,15.52,0,0,0,81.16,60c-6-6-14.54-6.19-22.49-6.06s-16.19.16-24.28.1q-13.87-.1-27.74-.58a5,5,0,0,0-5,5,5.09,5.09,0,0,0,5,5Z"/><path class="cls-1" d="M80.76,58.46c.45,0,.89,0,1.34.11l-1-.14a16,16,0,0,1,3.48.87l.42.17c-.55-.24-.64-.27-.27-.11s.54.26.8.41a13.56,13.56,0,0,1,1.54.95l.37.26c-.46-.36-.53-.41-.23-.17s.43.36.63.56.41.39.6.6l.28.32c.24.3.18.21-.2-.26a7.78,7.78,0,0,0,.47.7c.14.23.23.53.39.74-.24-.58-.29-.69-.15-.32l.12.4a6.83,6.83,0,0,1,.16.81l-.14-1a5.44,5.44,0,0,1,0,1.21l.13-1a3.63,3.63,0,0,1-.13.57,1.31,1.31,0,0,1-.09.28c-.1.27,0,.13.19-.44a2.86,2.86,0,0,0-.24.42c-.42.68.39-.39.13-.14L89,64.6q-.33.29.09-.06c.28-.21.31-.23.07-.08l-.16.09c-.34.18-.21.12.4-.16a4.77,4.77,0,0,0-.51.13l1-.13a3.37,3.37,0,0,1-.71,0l1,.13a1.53,1.53,0,0,1-.36-.07,3.75,3.75,0,0,0-2,7.24A7.31,7.31,0,0,0,96,67.58a9.14,9.14,0,0,0-.79-9c-3.16-4.76-8.88-7.4-14.48-7.63A3.77,3.77,0,0,0,77,54.71a3.83,3.83,0,0,0,3.75,3.75Z"/></g></g></svg>